<svg version="1.1" id="Layer_1" xmlns="http://www.w3.org/2000/svg" xmlns:xlink="http://www.w3.org/1999/xlink" x="0px" y="0px" viewBox="0 0 298 281" style="enable-background:new 0 0 298 281;" xml:space="preserve">
<style type="text/css">
	.heart{
    stroke:#FF0606;
    stroke-miterlimit:10;
    stroke-width: 5px;
  }
</style>
<title>icon_wishlist</title>
<g id="icon_wishlist">
	<path class="heart" d="M66.3,69.4c-19.1,20-19.1,51.5,0,71.5l84.6,87.9l84.7-87.8c19.1-20,19.1-51.5,0-71.5
		c-18-19.1-48.1-19.9-67.2-1.8c-0.6,0.6-1.2,1.2-1.8,1.8L151,85.7l-15.6-16.2c-18-19.1-48.1-19.9-67.2-1.8
		C67.6,68.2,67,68.8,66.3,69.4L66.3,69.4z"></path>
</g>
<path class="lines" d="M58.1,60.6L9.4,22.1c-1.5-1.2-1.8-3.4-0.6-4.9l0,0c1.2-1.5,3.4-1.8,4.9-0.6l48.6,38.5c1.5,1.2,1.8,3.4,0.6,4.9
	l0,0C61.8,61.5,59.6,61.8,58.1,60.6z"></path>
<path class="lines" d="M265.4,237l-48.6-38.5c-1.5-1.2-1.8-3.4-0.6-4.9v0c1.2-1.5,3.4-1.8,4.9-0.6l48.6,38.5c1.5,1.2,1.8,3.4,0.6,4.9
	l0,0C269.1,237.9,266.9,238.2,265.4,237z"></path>
<path class="lines" d="M40.1,230.6L88,191.3c1.5-1.2,3.7-1,4.9,0.5v0c1.2,1.5,1,3.7-0.5,4.9l-47.9,39.3c-1.5,1.2-3.7,1-4.9-0.5l0,0
	C38.4,234.1,38.6,231.9,40.1,230.6z"></path>
<path class="lines" d="M236.7,54.8l46-41.6c1.4-1.3,3.7-1.2,4.9,0.2v0c1.3,1.4,1.2,3.7-0.2,4.9l-46,41.6c-1.4,1.3-3.7,1.2-4.9-0.2v0
	C235.2,58.3,235.3,56.1,236.7,54.8z"></path>
<path class="lines" d="M16.9,139.2h34c1.9,0,3.5,1.6,3.5,3.5v0c0,1.9-1.6,3.5-3.5,3.5h-34c-1.9,0-3.5-1.6-3.5-3.5v0
	C13.4,140.7,15,139.2,16.9,139.2z"></path>
<path class="lines" d="M249.8,139.2h34c1.9,0,3.5,1.6,3.5,3.5v0c0,1.9-1.6,3.5-3.5,3.5h-34c-1.9,0-3.5-1.6-3.5-3.5v0
	C246.3,140.7,247.8,139.2,249.8,139.2z"></path>
<path class="lines" d="M154.5,237.3v34c0,1.9-1.6,3.5-3.5,3.5l0,0c-1.9,0-3.5-1.6-3.5-3.5v-34c0-1.9,1.6-3.5,3.5-3.5l0,0
	C152.9,233.8,154.5,235.4,154.5,237.3z"></path>
<path class="lines" d="M154.5,20.3v34c0,1.9-1.6,3.5-3.5,3.5l0,0c-1.9,0-3.5-1.6-3.5-3.5v-34c0-1.9,1.6-3.5,3.5-3.5l0,0
	C152.9,16.8,154.5,18.4,154.5,20.3z"></path>
</svg>